<?xml version="1.0" encoding="UTF-8"?><svg id="Layer_1" xmlns="http://www.w3.org/2000/svg" xmlns:xlink="http://www.w3.org/1999/xlink" viewBox="0 0 40 40"><defs><linearGradient id="linear-gradient" x1="-.4" y1="-.4" x2="38.8" y2="38.8" gradientUnits="userSpaceOnUse"><stop offset="0" stop-color="#ffe185"/><stop offset=".2" stop-color="#ffbb36"/><stop offset=".4" stop-color="#ff5176"/><stop offset=".5" stop-color="#f63395"/><stop offset=".7" stop-color="#a436d2"/><stop offset="1" stop-color="#5f4eed"/></linearGradient></defs><rect width="40" height="40" rx="10.1" ry="10.1" style="fill:url(#linear-gradient);"/><path d="m26.1,12.6c-.7,0-1.4.6-1.4,1.4s.6,1.4,1.4,1.4,1.4-.6,1.4-1.4-.6-1.4-1.4-1.4Z" style="fill:#fff;"/><path d="m20.1,14.3c-3.1,0-5.7,2.6-5.7,5.7s2.6,5.7,5.7,5.7,5.7-2.6,5.7-5.7-2.6-5.7-5.7-5.7Zm0,9.4c-2,0-3.7-1.6-3.7-3.7s1.6-3.7,3.7-3.7,3.7,1.6,3.7,3.7-1.6,3.7-3.7,3.7Z" style="fill:#fff;"/><path d="m24.6,31.6h-9.2c-3.8,0-7-3.1-7-7v-9.2c0-3.8,3.1-7,7-7h9.2c3.8,0,7,3.1,7,7v9.2c0,3.8-3.1,7-7,7ZM15.4,10.6c-2.6,0-4.8,2.1-4.8,4.8v9.2c0,2.6,2.1,4.8,4.8,4.8h9.2c2.6,0,4.8-2.1,4.8-4.8v-9.2c0-2.6-2.1-4.8-4.8-4.8h-9.2Z" style="fill:#fff;"/></svg>