<?xml version="1.0" encoding="UTF-8"?><svg id="Layer_1" xmlns="http://www.w3.org/2000/svg" viewBox="0 0 40 40"><rect width="40" height="40" rx="10.1" ry="10.1" style="fill:red;"/><path d="m22.1,6.8c-5.4-.6-11.3,1.4-14.5,6.4-2.9,4.5-2.3,9.8,0,12.5.6.8,1.4,1.4,2.4,1.8.5.2.9,0,1-.5.2-.6.3-1.3.5-1.9.1-.4-.1-.7-.5-1.1-2.6-3.2-1.3-10.2,4.4-12.8,4.9-2.3,12.7-.8,13.1,6.3.2,3.6-.9,8.6-3.8,10.7-3.1,2.3-6.8,0-6-3.1.9-3.8,2.2-6.3,1.7-8.3-.8-3.2-5.1-2.9-6.3,1-.6,1.8-.4,3.5.2,5.2,0,.2.1.3,0,.5-2.7,11.2-2.9,13-3,15.1,0,.5,0,.9,0,1.4h3.2c1.2-2.3,1.4-4.6,2.7-9.5,0,0,0-.2,0-.3.2.3.4.5.6.7,2.8,2.8,8.7,2.5,12.4-2.1,3.2-4,3.4-9.6,3.1-11.9-.8-5-4.8-9.4-11.3-10.1Z" style="fill:#fff;"/></svg>