<?xml version="1.0" encoding="UTF-8"?><svg id="Layer_1" xmlns="http://www.w3.org/2000/svg" xmlns:xlink="http://www.w3.org/1999/xlink" viewBox="0 0 100 41.8"><defs><linearGradient id="linear-gradient" x1="0" y1="26.8" x2="13.4" y2="26.8" gradientUnits="userSpaceOnUse"><stop offset="0" stop-color="#f1b81c"/><stop offset="0" stop-color="#f9f18d"/><stop offset=".3" stop-color="#f8f088"/><stop offset=".7" stop-color="#fcf28d"/><stop offset="1" stop-color="#e0ab25"/></linearGradient><linearGradient id="linear-gradient-2" x1="16.1" x2="18.5" xlink:href="#linear-gradient"/><linearGradient id="linear-gradient-3" x1="21.9" x2="35.8" xlink:href="#linear-gradient"/><linearGradient id="linear-gradient-4" x1="37.6" x2="51" xlink:href="#linear-gradient"/><linearGradient id="linear-gradient-5" x1="53.4" x2="66.8" xlink:href="#linear-gradient"/><linearGradient id="linear-gradient-6" x1="69.9" x2="83.3" xlink:href="#linear-gradient"/><linearGradient id="linear-gradient-7" x1="86.6" y1="26.8" x2="100" y2="26.8" xlink:href="#linear-gradient"/><linearGradient id="linear-gradient-8" x1="48.8" y1="14.5" x2="51.2" y2="14.5" gradientTransform="translate(24.9 -31.1) rotate(45)" xlink:href="#linear-gradient"/><linearGradient id="linear-gradient-9" x1="39.3" y1="6.5" x2="60.7" y2="6.5" xlink:href="#linear-gradient"/><linearGradient id="linear-gradient-10" x1="4" y1="16" x2="50" y2="16" xlink:href="#linear-gradient"/><linearGradient id="linear-gradient-11" x1="0" y1="16" x2="5.6" y2="16" xlink:href="#linear-gradient"/><linearGradient id="linear-gradient-12" x1="5.2" y1="16" x2="6.7" y2="16" xlink:href="#linear-gradient"/><linearGradient id="linear-gradient-13" x1="6.9" y1="16" x2="8.1" y2="16" xlink:href="#linear-gradient"/><linearGradient id="linear-gradient-14" x1="8.4" y1="16" x2="9.3" y2="16" xlink:href="#linear-gradient"/><linearGradient id="linear-gradient-15" x1="0" y1="9.3" x2="45.2" y2="9.3" xlink:href="#linear-gradient"/><linearGradient id="linear-gradient-16" x1="14.3" y1="12.9" x2="24.9" y2="12.9" xlink:href="#linear-gradient"/><linearGradient id="linear-gradient-17" x1="28.6" y1="11.3" x2="35.9" y2="11.3" xlink:href="#linear-gradient"/><linearGradient id="linear-gradient-18" x1="5" y1="12" x2="12.2" y2="12" xlink:href="#linear-gradient"/><linearGradient id="linear-gradient-19" x1="50" y1="16" x2="96" y2="16" xlink:href="#linear-gradient"/><linearGradient id="linear-gradient-20" x1="94.4" y1="16" x2="100" y2="16" xlink:href="#linear-gradient"/><linearGradient id="linear-gradient-21" x1="93.3" y1="16" x2="94.8" y2="16" xlink:href="#linear-gradient"/><linearGradient id="linear-gradient-22" x1="91.9" y1="16" x2="93.1" y2="16" xlink:href="#linear-gradient"/><linearGradient id="linear-gradient-23" x1="90.7" y1="16" x2="91.6" y2="16" xlink:href="#linear-gradient"/><linearGradient id="linear-gradient-24" x1="54.8" y1="9.3" x2="100" y2="9.3" xlink:href="#linear-gradient"/><linearGradient id="linear-gradient-25" x1="75.1" y1="12.9" x2="85.7" y2="12.9" xlink:href="#linear-gradient"/><linearGradient id="linear-gradient-26" x1="64.1" y1="11.3" x2="71.4" y2="11.3" xlink:href="#linear-gradient"/><linearGradient id="linear-gradient-27" x1="87.8" y1="12" x2="95" y2="12" xlink:href="#linear-gradient"/><linearGradient id="linear-gradient-28" x1="87.8" y1="38.7" x2="96" y2="38.7" xlink:href="#linear-gradient"/><linearGradient id="linear-gradient-29" x1="94.4" y1="38.7" x2="100" y2="38.7" xlink:href="#linear-gradient"/><linearGradient id="linear-gradient-30" x1="93.3" y1="38.7" x2="94.8" y2="38.7" xlink:href="#linear-gradient"/><linearGradient id="linear-gradient-31" x1="91.9" y1="38.7" x2="93.1" y2="38.7" xlink:href="#linear-gradient"/><linearGradient id="linear-gradient-32" x1="90.7" y1="38.7" x2="91.6" y2="38.7" xlink:href="#linear-gradient"/><linearGradient id="linear-gradient-33" x1="4" y1="38.7" x2="12.2" y2="38.7" xlink:href="#linear-gradient"/><linearGradient id="linear-gradient-34" x1="0" y1="38.7" x2="5.6" y2="38.7" xlink:href="#linear-gradient"/><linearGradient id="linear-gradient-35" x1="5.2" y1="38.7" x2="6.7" y2="38.7" xlink:href="#linear-gradient"/><linearGradient id="linear-gradient-36" x1="6.9" y1="38.7" x2="8.1" y2="38.7" xlink:href="#linear-gradient"/><linearGradient id="linear-gradient-37" x1="8.4" y1="38.7" x2="9.3" y2="38.7" xlink:href="#linear-gradient"/></defs><path d="m12.8,27.7c-.2-.3-.4-.6-.6-.8-.2-.2-.5-.4-.8-.6.3-.4.5-.9.7-1.4.1-.5.2-1,.2-1.4v-.5c0-.5,0-1-.3-1.4-.2-.4-.4-.7-.7-.9-.3-.2-.6-.4-1-.5-.3-.1-.7-.2-1-.2H1.2c-.2,0-.3,0-.5,0-.1,0-.3.1-.4.3-.1.1-.2.2-.3.4,0,.1,0,.3,0,.5v10.9c0,.2,0,.3,0,.5,0,.1.1.3.3.4.1.1.2.2.4.3.1,0,.3,0,.5,0h9.2c.5,0,1,0,1.4-.3.4-.2.7-.4.9-.7.2-.3.4-.6.5-1s.2-.7.2-1v-.5c0-.5,0-.9-.2-1.3-.1-.4-.2-.7-.4-1.1Zm-1.8,2.8c0,.1,0,.2,0,.3,0,0,0,.1-.1.2,0,0-.1,0-.2,0,0,0-.1,0-.2,0H2.4v-8.5h6.9c.3,0,.5.2.5.5v.5c0,.3,0,.6-.1.9,0,.3-.2.5-.4.6-.2.2-.4.3-.7.4-.3,0-.5.1-.9.1H3.4v2.4h5.5c.3,0,.6,0,.9.1.3,0,.5.2.7.4.2.2.3.4.4.6,0,.3.1.5.1.9v.4Z" style="fill:url(#linear-gradient);"/><rect x="16.1" y="20.1" width="2.4" height="13.4" style="fill:url(#linear-gradient-2);"/><path d="m31.7,29c.3,0,.7-.2,1-.3.3-.2.7-.3,1-.6.3-.2.6-.5.8-.9.2-.3.4-.7.6-1.2.1-.4.2-.9.2-1.5v-1.5c0-.3,0-.6-.2-1-.1-.3-.3-.7-.5-1-.2-.3-.5-.5-.9-.7-.4-.2-.8-.3-1.4-.3h-9.2c-.2,0-.3,0-.5,0-.1,0-.3.1-.4.3-.1.1-.2.2-.3.4,0,.1,0,.3,0,.5v12.1h2.4v-10.9h8s.1,0,.2,0c0,0,.1,0,.2,0,0,0,0,0,.1.2,0,0,0,.2,0,.3v1.5c0,.3,0,.6-.1.8,0,.2-.2.5-.4.6-.2.2-.4.3-.7.4-.3.1-.5.2-.8.2h-5.5v2.4h1.7l5.1,4.4h3.7l-5.1-4.4c.3,0,.6,0,1-.1Z" style="fill:url(#linear-gradient-3);"/><path d="m48.5,24.5c0,.4,0,.8-.2,1-.1.3-.3.5-.5.6-.2.1-.4.2-.7.3-.2,0-.5.1-.7.1h-4.4c-.3,0-.6,0-.9-.1-.3,0-.5-.2-.7-.4-.2-.2-.3-.4-.4-.6,0-.3-.1-.5-.1-.9v-4.5h-2.4v4.5c0,.5,0,1,.2,1.5.1.4.3.8.6,1.2.2.3.5.6.8.9.3.2.6.4,1,.6.3.2.7.3,1,.3.3,0,.7.1,1,.1h1v4.4h2.4v-4.4h1c.3,0,.6,0,1-.1s.7-.2,1-.3c.3-.2.6-.3,1-.6.3-.2.6-.5.8-.9.2-.3.4-.7.6-1.2.1-.4.2-.9.2-1.5v-4.5h-2.4v4.5Z" style="fill:url(#linear-gradient-4);"/><path d="m66.4,20.4c-.1-.1-.2-.2-.4-.3-.1,0-.3,0-.5,0h-5.5c-1,0-1.9.2-2.7.5-.8.3-1.5.8-2.1,1.4-.6.6-1.1,1.3-1.4,2.1-.3.8-.5,1.7-.5,2.7v6.7h2.4v-3.3h8.5v3.3h2.4v-12.1c0-.2,0-.3,0-.5,0-.1-.1-.3-.3-.4Zm-2.1,7.3h-8.5v-1c0-.7,0-1.3.3-1.7.2-.5.4-.9.7-1.2.3-.3.6-.6,1-.7.3-.2.7-.3,1-.4.3,0,.6-.1.8-.2.2,0,.4,0,.5,0h4.3v5.2Z" style="fill:url(#linear-gradient-5);"/><path d="m82.9,20.4c-.1-.1-.2-.2-.4-.3-.1,0-.3,0-.5,0h-5.5c-1,0-1.9.2-2.7.5-.8.3-1.5.8-2.1,1.4-.6.6-1.1,1.3-1.4,2.1-.3.8-.5,1.7-.5,2.7v6.7h2.4v-3.3h8.5v3.3h2.4v-12.1c0-.2,0-.3,0-.5,0-.1-.1-.3-.3-.4Zm-2.1,7.3h-8.5v-1c0-.7,0-1.3.3-1.7.2-.5.4-.9.7-1.2.3-.3.6-.6,1-.7.3-.2.7-.3,1-.4.3,0,.6-.1.8-.2.2,0,.4,0,.5,0h4.3v5.2Z" style="fill:url(#linear-gradient-6);"/><path d="m97.6,20.1v9.4l-8.9-9.2c-.2-.2-.4-.3-.6-.3-.2,0-.5,0-.7,0-.2,0-.4.3-.5.5-.1.2-.2.4-.2.7v12.3h2.4v-9.4l8.9,9.2c.1.1.3.2.4.3.2,0,.3,0,.5,0s.3,0,.5,0c.1,0,.3-.1.4-.3.1-.1.2-.2.3-.4,0-.1,0-.3,0-.5v-12.3h-2.4Z" style="fill:url(#linear-gradient-7);"/><rect x="49.1" y="13.6" width="1.7" height="1.7" transform="translate(4.4 39.6) rotate(-45)" style="fill:url(#linear-gradient-8);"/><path d="m50,0c-.8.9-1.1,1.9-1.2,2.5,0,.7-.7,0-.9-.3-.3-.3-.5.2-.3,2.8.3,2.5,1.8,3.7,2.1,4.3.3.6-.2,1.5-1.1,1.7-.9.2-.8-.4-1.1-2.4-.3-2.1-1.7-3.8-3.1-3.9-1.4-.1-.8,0-.7.5,0,.5-.5,0-2.1.1-1.6.2-2.7,1.8-2.1,1.8.6,0,3-.2,4.6.9,1.7,1.1,2.4,3.6,3.1,4.5.6.9,2.3,1,2.8.2.5.8,2.2.7,2.9-.2.6-.9,1.4-3.4,3.1-4.5,1.7-1.1,4-1,4.6-.9.6,0-.5-1.6-2.1-1.8-1.6-.2-2.2.4-2.1-.1,0-.5.7-.6-.7-.5-1.4.1-2.8,1.9-3.1,3.9-.3,2.1-.2,2.6-1.1,2.4-.9-.1-1.5-1.1-1.1-1.7.4-.6,1.8-1.7,2.1-4.3.3-2.6,0-3.1-.3-2.8-.3.3-.8,1-.9.3,0-.7-.4-1.7-1.2-2.5h0Z" style="fill:url(#linear-gradient-9); fill-rule:evenodd;"/><polygon points="50 15.7 4 15.8 4 16.2 50 16.4 50 15.7" style="fill:url(#linear-gradient-10);"/><path d="m5.6,16c-1.5,0-1.6,2.3-2.2,1.9-.5-.4-.7-1.3-2.2-1.6-1.5-.3-1.1-.3-1.1-.3,0,0-.4,0,1.1-.3,1.5-.3,1.7-1.2,2.2-1.6.5-.4.6,1.9,2.2,1.9h0Z" style="fill:url(#linear-gradient-11); fill-rule:evenodd;"/><path d="m5.9,15.3c.4,0,.7.3.7.7s-.3.7-.7.7-.7-.3-.7-.7.3-.7.7-.7h0Z" style="fill:url(#linear-gradient-12); fill-rule:evenodd;"/><path d="m7.5,15.4c.3,0,.6.3.6.6s-.3.6-.6.6-.6-.3-.6-.6.3-.6.6-.6h0Z" style="fill:url(#linear-gradient-13); fill-rule:evenodd;"/><path d="m8.8,15.6c.2,0,.4.2.4.4s-.2.4-.4.4-.4-.2-.4-.4.2-.4.4-.4h0Z" style="fill:url(#linear-gradient-14); fill-rule:evenodd;"/><path d="m41.1,13.4c.6.1.3-1.4-1.4-.9-1.8.6-.6,3.2,2.5,3.2,3.1,0,4.7-5.1.4-6.9-1.5-.6-3.4-.9-5.3-.7-7.2.5-10.7,4.5-17,6.3-5.3,1.5-11.7,1.8-16.2-1.3-6.4-4.5-2.3-8.8.3-8.2,2.6.6,2.2,3.1,3.5,2.8,1.3-.3,1.6-4.3-3.1-4.9C0,2.3-.9,7.6.9,10.5c1.8,2.9,5.3,5.3,11.9,5.3s9.5-1.4,13-3.1c2.4-1.2,4.6-2.7,7.7-3.4,4.3-1,8.1,0,9.6,1.6,2,2.1.5,4.2-.7,4.5-2.3.6-2.9-2.3-1.2-1.9h0Z" style="fill:url(#linear-gradient-15); fill-rule:evenodd;"/><path d="m24.9,12.5c-2.1,1.1-6.5,2.1-7.3,1-.8-1.1-.1-1.7-.7-1.9-.6-.2-.9.7-.7,1.5.2.7-.3.5-.7,0-.4-.6-.1-1.5,0-1.7.2-.3-1.1-.8-1.3.7-.3,1.5,1.6,2.9,4.9,2.7,3.2-.2,5.8-2.2,5.8-2.2h0Z" style="fill:url(#linear-gradient-16); fill-rule:evenodd;"/><path d="m34.1,9.1c-3.3,1-4,3.5-3.3,4.2.7.7,1.9-.2,1.7-.8-.2-.6,1-.6.9.1,0,.7-.8,1.6-2.2,1.4-1.4-.2-1.2-2.1-.5-3,.7-.9-.8.3-1.1,1.2-.3.9-.9.8-1.1.4-.2-.4,1.1-2.9,5.1-3.8,4-.9,1.5-.2.4.2h0Z" style="fill:url(#linear-gradient-17); fill-rule:evenodd;"/><path d="m12.2,15.5c-3.6-1-4.7-3.1-4.4-4.4.4-1.3-.2-1.1-.9-.8-.7.3-.9-.7-.2-1.5.8-.8-2.1-.7-1.6,2.5.5,3.1,5.2,4.5,7.1,4.2h0Z" style="fill:url(#linear-gradient-18); fill-rule:evenodd;"/><polygon points="50 15.7 96 15.8 96 16.2 50 16.4 50 15.7" style="fill:url(#linear-gradient-19);"/><path d="m94.4,16c1.6,0,1.6,2.3,2.2,1.9.5-.4.7-1.3,2.2-1.6,1.5-.3,1.1-.3,1.1-.3,0,0,.4,0-1.1-.3-1.5-.3-1.7-1.2-2.2-1.6-.5-.4-.6,1.9-2.2,1.9h0Z" style="fill:url(#linear-gradient-20); fill-rule:evenodd;"/><path d="m94.1,15.3c.4,0,.7.3.7.7s-.3.7-.7.7-.7-.3-.7-.7.3-.7.7-.7h0Z" style="fill:url(#linear-gradient-21); fill-rule:evenodd;"/><path d="m92.5,15.4c.3,0,.6.3.6.6s-.3.6-.6.6-.6-.3-.6-.6.3-.6.6-.6h0Z" style="fill:url(#linear-gradient-22); fill-rule:evenodd;"/><path d="m91.1,15.6c.2,0,.4.2.4.4s-.2.4-.4.4-.4-.2-.4-.4.2-.4.4-.4h0Z" style="fill:url(#linear-gradient-23); fill-rule:evenodd;"/><path d="m58.9,13.4c-.6.1-.3-1.4,1.4-.9,1.7.6.6,3.2-2.5,3.2-3.1,0-4.7-5.1-.4-6.9,1.5-.6,3.4-.9,5.3-.7,7.2.5,10.7,4.5,17,6.3,5.3,1.5,11.7,1.8,16.2-1.3,6.4-4.5,2.3-8.8-.3-8.2-2.6.6-2.2,3.1-3.5,2.8-1.3-.3-1.6-4.3,3.1-4.9,4.6-.6,5.7,4.8,3.8,7.7-1.9,2.9-5.3,5.3-11.9,5.3s-9.5-1.4-13-3.1c-2.4-1.2-4.6-2.7-7.7-3.4-4.3-1-8.1,0-9.6,1.6-2,2.1-.5,4.2.7,4.5,2.3.6,2.9-2.3,1.2-1.9h0Z" style="fill:url(#linear-gradient-24); fill-rule:evenodd;"/><path d="m75.1,12.5c2.1,1.1,6.5,2.1,7.3,1,.8-1.1.1-1.7.7-1.9.6-.2.9.7.7,1.5-.2.7.3.5.7,0,.4-.6.1-1.5,0-1.7-.2-.3,1.1-.8,1.3.7.3,1.5-1.6,2.9-4.9,2.7-3.2-.2-5.8-2.2-5.8-2.2h0Z" style="fill:url(#linear-gradient-25); fill-rule:evenodd;"/><path d="m65.9,9.1c3.3,1,4,3.5,3.3,4.2-.7.7-1.9-.2-1.7-.8.2-.6-1-.6-.9.1,0,.7.8,1.6,2.2,1.4,1.4-.2,1.2-2.1.5-3s.8.3,1.1,1.2c.3.9.9.8,1.1.4.2-.4-1.1-2.9-5.1-3.8-4-.9-1.5-.2-.4.2h0Z" style="fill:url(#linear-gradient-26); fill-rule:evenodd;"/><path d="m87.8,15.5c3.6-1,4.7-3.1,4.4-4.4-.3-1.3.2-1.1.9-.8.7.3,1-.7.2-1.5-.8-.8,2.1-.7,1.6,2.5-.5,3.1-5.2,4.5-7.1,4.2h0Z" style="fill:url(#linear-gradient-27); fill-rule:evenodd;"/><polygon points="87.8 38.4 96 38.5 96 38.9 87.8 39 87.8 38.4" style="fill:url(#linear-gradient-28);"/><path d="m94.4,38.7c1.6,0,1.6,2.3,2.2,1.9.5-.4.7-1.3,2.2-1.6,1.5-.3,1.1-.3,1.1-.3,0,0,.4,0-1.1-.3-1.5-.3-1.7-1.2-2.2-1.6-.5-.4-.6,1.9-2.2,1.9h0Z" style="fill:url(#linear-gradient-29); fill-rule:evenodd;"/><path d="m94.1,38c.4,0,.7.3.7.7s-.3.7-.7.7-.7-.3-.7-.7.3-.7.7-.7h0Z" style="fill:url(#linear-gradient-30); fill-rule:evenodd;"/><path d="m92.5,38.1c.3,0,.6.3.6.6s-.3.6-.6.6-.6-.3-.6-.6.3-.6.6-.6h0Z" style="fill:url(#linear-gradient-31); fill-rule:evenodd;"/><path d="m91.1,38.2c.2,0,.4.2.4.4s-.2.4-.4.4-.4-.2-.4-.4.2-.4.4-.4h0Z" style="fill:url(#linear-gradient-32); fill-rule:evenodd;"/><polygon points="12.2 38.4 4 38.5 4 38.9 12.2 39 12.2 38.4" style="fill:url(#linear-gradient-33);"/><path d="m5.6,38.7c-1.6,0-1.6,2.3-2.2,1.9-.5-.4-.7-1.3-2.2-1.6-1.5-.3-1.1-.3-1.1-.3,0,0-.4,0,1.1-.3,1.5-.3,1.7-1.2,2.2-1.6.5-.4.6,1.9,2.2,1.9h0Z" style="fill:url(#linear-gradient-34); fill-rule:evenodd;"/><path d="m5.9,38c-.4,0-.7.3-.7.7s.3.7.7.7.7-.3.7-.7-.3-.7-.7-.7h0Z" style="fill:url(#linear-gradient-35); fill-rule:evenodd;"/><path d="m7.5,38.1c-.3,0-.6.3-.6.6s.3.6.6.6.6-.3.6-.6-.3-.6-.6-.6h0Z" style="fill:url(#linear-gradient-36); fill-rule:evenodd;"/><path d="m8.9,38.2c-.2,0-.4.2-.4.4s.2.4.4.4.4-.2.4-.4-.2-.4-.4-.4h0Z" style="fill:url(#linear-gradient-37); fill-rule:evenodd;"/><path d="m16.2,36.2v-.5h2.6v.5h-1.1v4.3h-.5v-4.3h-1.1Z" style="fill:#f7f7ee;"/><path d="m19.6,35.6h.5v2c.2-.2.4-.4.6-.5s.5-.2.7-.2.5,0,.7.2.4.3.5.5.1.6.1,1.1v1.8h-.5v-1.7c0-.4,0-.7,0-.8,0-.2-.2-.4-.3-.5s-.3-.2-.6-.2-.5,0-.7.3-.4.4-.4.7c0,.2,0,.5,0,1v1.3h-.5v-4.9Z" style="fill:#f7f7ee;"/><path d="m26.9,39.3l.4.2c-.1.2-.3.4-.4.6-.2.2-.4.3-.6.3-.2,0-.4.1-.7.1-.6,0-1-.2-1.4-.6s-.5-.8-.5-1.3.1-.8.4-1.2c.3-.4.8-.7,1.4-.7s1.1.2,1.4.7c.3.3.4.7.4,1.2h-3.2c0,.4.1.7.4,1,.3.3.6.4.9.4s.4,0,.5,0c.2,0,.3-.1.4-.2s.2-.3.4-.5Zm0-1c0-.2-.1-.4-.3-.6s-.3-.3-.5-.4c-.2,0-.4-.1-.6-.1-.3,0-.6.1-.9.3-.2.2-.3.4-.4.7h2.6Z" style="fill:#f7f7ee;"/><path d="m30,39.6l.4-.2c.3.5.6.8,1,.8s.3,0,.5-.1.2-.2.3-.3.1-.3.1-.4,0-.3-.2-.5c-.1-.2-.4-.5-.8-.8-.4-.3-.6-.5-.7-.7-.2-.2-.3-.5-.3-.7s0-.4.1-.6.2-.3.4-.4.4-.1.6-.1.4,0,.6.2.4.3.6.6l-.4.3c-.2-.2-.3-.4-.5-.5s-.3-.1-.4-.1-.4,0-.5.2-.2.3-.2.4,0,.2,0,.3.1.2.2.3c0,0,.3.2.6.5.4.3.7.6.9.8s.2.5.2.7c0,.3-.1.6-.4.9s-.6.4-1,.4-.6,0-.8-.2-.5-.4-.7-.8Z" style="fill:#f7f7ee;"/><path d="m33.9,37h.5v1.7c0,.4,0,.7,0,.8,0,.2.2.4.4.5s.4.2.7.2.5,0,.6-.2c.2-.1.3-.3.4-.5,0-.1,0-.4,0-.9v-1.7h.5v1.7c0,.5,0,.9-.2,1.1s-.3.4-.5.6-.5.2-.9.2-.6,0-.9-.2-.4-.3-.5-.6-.2-.6-.2-1.1v-1.7Z" style="fill:#f7f7ee;"/><path d="m38.2,37h.5v.7c.2-.2.4-.4.6-.6s.5-.2.8-.2c.5,0,.9.2,1.3.5s.5.8.5,1.3-.2,1-.5,1.3-.8.5-1.3.5-.5,0-.8-.2c-.2-.1-.4-.3-.6-.5v1.9h-.5v-4.8Zm1.8.3c-.4,0-.7.1-1,.4-.3.3-.4.6-.4,1s0,.5.2.7c.1.2.3.4.5.5s.5.2.7.2.5,0,.7-.2.4-.3.5-.5c.1-.2.2-.5.2-.7s0-.5-.2-.7c-.1-.2-.3-.4-.5-.5s-.4-.2-.7-.2Z" style="fill:#f7f7ee;"/><path d="m42.8,37h.5v.5c.1-.2.3-.4.4-.5s.3-.2.5-.2.3,0,.4.1l-.2.4c0,0-.2,0-.2,0-.2,0-.3,0-.4.2s-.2.3-.3.6c0,.2,0,.6,0,1.2v1.2h-.5v-3.5Z" style="fill:#f7f7ee;"/><path d="m48.2,39.3l.4.2c-.1.2-.3.4-.4.6-.2.2-.4.3-.6.3-.2,0-.4.1-.7.1-.6,0-1-.2-1.4-.6s-.5-.8-.5-1.3.1-.8.4-1.2c.3-.4.8-.7,1.4-.7s1.1.2,1.4.7c.3.3.4.7.4,1.2h-3.2c0,.4.1.7.4,1,.3.3.6.4.9.4s.4,0,.5,0c.2,0,.3-.1.4-.2s.2-.3.4-.5Zm0-1c0-.2-.1-.4-.3-.6s-.3-.3-.5-.4c-.2,0-.4-.1-.6-.1-.3,0-.6.1-.9.3-.2.2-.3.4-.4.7h2.6Z" style="fill:#f7f7ee;"/><path d="m49.7,37h.5v.6c.2-.2.3-.4.5-.5.2-.1.5-.2.7-.2s.3,0,.5.1.3.2.4.3c0,.1.2.3.3.5.2-.3.3-.5.6-.6.2-.1.5-.2.7-.2s.5,0,.6.2c.2.1.3.3.4.5s.1.6.1,1v1.9h-.5v-1.9c0-.4,0-.6,0-.8s-.1-.3-.3-.3c-.1,0-.3-.1-.5-.1s-.4,0-.6.2c-.2.1-.3.3-.4.5,0,.2-.1.6-.1,1.1v1.4h-.5v-1.8c0-.4,0-.7,0-.9s-.1-.3-.3-.4-.3-.1-.5-.1-.4,0-.6.2-.3.3-.4.5c0,.2-.1.5-.1,1v1.5h-.5v-3.5Z" style="fill:#f7f7ee;"/><path d="m59.1,39.3l.4.2c-.1.2-.3.4-.4.6-.2.2-.4.3-.6.3-.2,0-.4.1-.7.1-.6,0-1-.2-1.4-.6-.3-.4-.5-.8-.5-1.3s.1-.8.4-1.2c.3-.4.8-.7,1.4-.7s1.1.2,1.4.7c.3.3.4.7.4,1.2h-3.2c0,.4.1.7.4,1,.3.3.6.4.9.4s.4,0,.5,0,.3-.1.4-.2.2-.3.4-.5Zm0-1c0-.2-.1-.4-.3-.6s-.3-.3-.5-.4c-.2,0-.4-.1-.6-.1-.3,0-.6.1-.9.3-.2.2-.3.4-.4.7h2.6Z" style="fill:#f7f7ee;"/><path d="m62.8,35.7h.9c.4,0,.7,0,.9.1s.4.2.5.4.2.4.2.6,0,.4-.2.6-.3.3-.5.4c.2,0,.4.2.6.3.1.1.2.3.3.4,0,.2.1.3.1.5,0,.4-.1.7-.4,1s-.7.4-1.1.4h-1.3v-4.8Zm.5.5v1.5h.3c.3,0,.6,0,.7,0,.2,0,.3-.2.4-.3s.1-.3.1-.4,0-.4-.2-.5-.4-.2-.7-.2h-.6Zm0,2v1.8h.6c.3,0,.6,0,.8-.1.2,0,.3-.2.4-.3s.1-.3.1-.5,0-.4-.2-.6-.3-.3-.6-.3c-.2,0-.4,0-.9,0h-.3Z" style="fill:#f7f7ee;"/><path d="m66.9,35.5c.1,0,.2,0,.3.1s.1.2.1.3,0,.2-.1.3-.2.1-.3.1-.2,0-.3-.1-.1-.2-.1-.3,0-.2.1-.3.2-.1.3-.1Zm-.2,1.5h.5v3.5h-.5v-3.5Z" style="fill:#f7f7ee;"/><path d="m68.1,37h.5v.5c.1-.2.3-.4.4-.5s.3-.2.5-.2.3,0,.4.1l-.2.4c0,0-.2,0-.2,0-.2,0-.3,0-.4.2s-.2.3-.3.6c0,.2,0,.6,0,1.2v1.2h-.5v-3.5Z" style="fill:#f7f7ee;"/><path d="m70.1,37h.5l1.2,2.7,1.2-2.7h.5l-2.1,4.8h-.5l.7-1.6-1.5-3.3Z" style="fill:#f7f7ee;"/><path d="m77.8,37v3.5h-.4v-.6c-.2.2-.4.4-.6.5s-.5.2-.8.2c-.5,0-.9-.2-1.3-.5s-.5-.8-.5-1.3.2-.9.5-1.3.8-.5,1.3-.5.6,0,.8.2.4.3.6.6v-.7h.4Zm-1.8.3c-.3,0-.5,0-.7.2-.2.1-.4.3-.5.5-.1.2-.2.5-.2.7s0,.5.2.7c.1.2.3.4.5.5.2.1.4.2.7.2s.5,0,.7-.2c.2-.1.4-.3.5-.5.1-.2.2-.5.2-.7,0-.4-.1-.8-.4-1-.3-.3-.6-.4-1-.4Z" style="fill:#f7f7ee;"/><path d="m79,37h.5v.6c.2-.2.4-.4.6-.5s.5-.2.7-.2.5,0,.7.2.4.3.5.5.1.6.1,1.1v1.8h-.5v-1.7c0-.4,0-.7,0-.8,0-.2-.2-.4-.3-.5s-.3-.2-.6-.2-.5,0-.7.3c-.2.2-.4.4-.4.7,0,.2,0,.5,0,1v1.3h-.5v-3.5Z" style="fill:#f7f7ee;"/><path d="m83.4,35.5c.1,0,.2,0,.3.1s.1.2.1.3,0,.2-.1.3-.2.1-.3.1-.2,0-.3-.1c0,0-.1-.2-.1-.3s0-.2.1-.3c0,0,.2-.1.3-.1Zm-.2,1.5h.5v3.5h-.5v-3.5Z" style="fill:#f7f7ee;"/></svg>